<svg width="747" height="424" viewBox="0 0 747 424" fill="none" xmlns="http://www.w3.org/2000/svg">
<path fill-rule="evenodd" clip-rule="evenodd" d="M77 101.512C74.4852 101.832 71.8791 102 69.1884 102C39.4172 102 20 81.431 20 61.5C20 41.569 39.4172 21 69.1884 21C71.8791 21 74.4852 21.168 77 21.4884V1.38133C74.4359 1.12939 71.8294 1 69.1884 1C30.9767 1 0 28.0868 0 61.5C0 94.9132 30.9767 122 69.1884 122C71.8294 122 74.4359 121.871 77 121.619V101.512Z" fill="#FF6B00"/>
<path fill-rule="evenodd" clip-rule="evenodd" d="M499 401.4C496.881 401.795 494.71 402 492.507 402C472.429 402 455 384.963 455 362.5C455 340.037 472.429 323 492.507 323C494.71 323 496.881 323.205 499 323.6V303.375C496.869 303.127 494.702 303 492.507 303C460.747 303 435 329.639 435 362.5C435 395.361 460.747 422 492.507 422C494.702 422 496.869 421.873 499 421.625V401.4Z" fill="#FF6B00"/>
<path fill-rule="evenodd" clip-rule="evenodd" d="M105 75V102C128.661 102 147 83.4086 147 61.5C147 39.5914 128.661 21 105 21C98.5101 21 92.4206 22.3987 87 24.881V3.58909C92.6966 1.90531 98.74 1 105 1C139.242 1 167 28.0868 167 61.5C167 94.9132 139.242 122 105 122H85V75V56V55H114V75H105Z" fill="#FF6B00"/>
<path fill-rule="evenodd" clip-rule="evenodd" d="M205.221 20.6843C202.829 20.7107 200.493 20.9266 198.227 21.316L198.004 1.1442C200.299 0.866877 202.633 0.711666 205 0.685499C239.239 0.306906 267.295 27.0851 267.665 60.4963C268.034 93.9075 240.577 121.3 206.337 121.678C203.971 121.704 201.634 121.601 199.334 121.374L199.111 101.202C201.384 101.542 203.724 101.706 206.116 101.679C229.775 101.418 247.908 82.6247 247.666 60.7174C247.424 38.8102 228.88 20.4227 205.221 20.6843ZM195 0.999993H175V281H195V0.999993Z" fill="white"/>
<path fill-rule="evenodd" clip-rule="evenodd" d="M356 119.411C350.303 121.095 344.26 122 338 122C303.758 122 276 94.9132 276 61.5C276 28.0868 303.758 1 338 1C348.075 1 357.589 3.34511 366 7.50648V8H376V122H356V119.411ZM356 98.119V24.881C350.579 22.3987 344.49 21 338 21C314.339 21 296 39.5914 296 61.5C296 83.4086 314.339 102 338 102C344.49 102 350.579 100.601 356 98.119Z" fill="#FF6B00"/>
<path fill-rule="evenodd" clip-rule="evenodd" d="M198 160V180H290V160H198ZM254 183H234V420H254V183Z" fill="#FBFBFB"/>
<path fill-rule="evenodd" clip-rule="evenodd" d="M299 160H315.923V235.039H316.003C316.001 235.194 316 235.351 316 235.508C316 254.013 328.175 264 337.5 264C346.825 264 359 254.013 359 235.508C359 235.351 358.999 235.194 358.997 235.039H359.077V160H376V235.039H375.998C375.999 235.195 376 235.351 376 235.508C376 260.632 358.763 281 337.5 281C316.237 281 299 260.632 299 235.508C299 235.351 299.001 235.195 299.002 235.039H299V160Z" fill="#FDFDFD"/>
<path fill-rule="evenodd" clip-rule="evenodd" d="M284 301H264V422H284V301ZM332 336.5C332 352.396 320.228 365.851 304 370.375V372.851L334.709 409.224L319.427 422.126L288.083 385H288V384.902V371.825V352V351.71C289.259 351.899 290.592 352 292 352C305.356 352 312 342.883 312 336.5C312 330.117 305.356 321 292 321C290.592 321 289.259 321.101 288 321.29V301.175C289.316 301.059 290.65 301 292 301C314.091 301 332 316.894 332 336.5Z" fill="#FF6B00"/>
<path fill-rule="evenodd" clip-rule="evenodd" d="M696 302H676V423H696V302ZM744 337.5C744 353.396 732.228 366.851 716 371.375V373.851L746.709 410.224L731.427 423.126L700.083 386H700V385.902V372.825V353V352.71C701.259 352.899 702.592 353 704 353C717.356 353 724 343.883 724 337.5C724 331.117 717.356 322 704 322C702.592 322 701.259 322.101 700 322.29V302.175C701.316 302.059 702.65 302 704 302C726.091 302 744 317.894 744 337.5Z" fill="#FF6B00"/>
<path fill-rule="evenodd" clip-rule="evenodd" d="M365 303H345V421H365V373H401V353H365V303ZM425 304H405H369V324H405V422H425V304Z" fill="#FF6B00"/>
<path fill-rule="evenodd" clip-rule="evenodd" d="M529 302H509V423H529V302ZM581.323 311.754L564.002 302L532.307 355.55H532V377.01H532.424L532 377.334L567.865 422L583.61 409.97L553 371.849V359.607L581.323 311.754Z" fill="#FF6B00"/>
<path fill-rule="evenodd" clip-rule="evenodd" d="M617 302H597V423H617V302ZM620 302V322H661V302H620ZM620 372V352H647V372H620ZM620 403V423H661V403H620Z" fill="#FF6B00"/>
</svg>
