<svg width="722" height="569" viewBox="0 0 722 569" fill="none" xmlns="http://www.w3.org/2000/svg">
<g clip-path="url(#clip0)">
<path d="M443.382 504.734L424.113 522.473L439.426 496.779C427.362 474.9 407.63 455.992 407.63 455.992C407.63 455.992 366.693 495.212 366.693 526.042C366.693 556.872 385.021 567.636 407.63 567.636C430.238 567.636 448.566 556.872 448.566 526.042C448.566 519.18 446.535 511.902 443.382 504.734Z" fill="#F2F2F2"/>
<path d="M419.157 523.434V524.953C419.067 542.617 416.088 556.399 410.243 566.104C410.16 566.247 410.07 566.382 409.987 566.525L409.332 566.127L408.708 565.735C415.193 555.256 417.487 540.443 417.57 525.036C417.578 524.539 417.585 524.035 417.578 523.531C417.555 517.009 417.156 510.411 416.517 504.002C416.472 503.505 416.419 503.001 416.366 502.497C415.479 494.041 414.2 485.961 412.891 478.943C412.801 478.446 412.703 477.95 412.605 477.461C410.341 465.589 408.031 456.99 407.504 455.087C407.444 454.854 407.407 454.726 407.399 454.696L408.114 454.493L408.121 454.485L408.843 454.282C408.851 454.312 408.979 454.741 409.189 455.539C409.994 458.518 412.086 466.605 414.14 477.272C414.23 477.754 414.328 478.25 414.418 478.747C415.486 484.442 416.532 490.806 417.359 497.487C417.57 499.164 417.758 500.819 417.924 502.452C417.984 502.956 418.037 503.46 418.082 503.957C418.774 510.885 419.132 517.378 419.157 523.434Z" fill="white"/>
<path d="M414.14 477.272C413.636 477.34 413.124 477.408 412.605 477.46C411.195 477.606 409.779 477.678 408.362 477.679C402.323 477.687 396.358 476.34 390.909 473.737C390.593 474.135 390.277 474.534 389.953 474.94C395.686 477.739 401.983 479.19 408.362 479.183C409.875 479.183 411.386 479.103 412.891 478.943C413.402 478.89 413.914 478.822 414.418 478.747C418.579 478.15 422.624 476.925 426.417 475.113C426.094 474.7 425.778 474.293 425.469 473.895C421.88 475.572 418.062 476.711 414.14 477.272V477.272Z" fill="white"/>
<path d="M417.924 502.452C417.405 502.482 416.886 502.497 416.366 502.497C416.208 502.505 416.043 502.505 415.885 502.505C409.341 502.505 402.894 500.922 397.094 497.892C391.293 494.863 386.311 490.475 382.573 485.104C382.272 485.548 381.971 485.992 381.678 486.443C385.574 491.878 390.71 496.306 396.658 499.361C402.607 502.415 409.198 504.009 415.885 504.009C416.096 504.009 416.306 504.009 416.517 504.002C417.044 503.994 417.563 503.979 418.082 503.956C426.114 503.545 433.858 500.829 440.387 496.133C440.147 495.689 439.906 495.245 439.658 494.801C433.312 499.412 425.759 502.071 417.924 502.452V502.452Z" fill="white"/>
<path d="M419.157 523.434C418.631 523.479 418.104 523.509 417.578 523.531C417.013 523.554 416.449 523.569 415.885 523.569C407.092 523.559 398.538 520.701 391.505 515.422C384.472 510.144 379.337 502.73 376.871 494.289C376.532 494.899 376.194 495.501 375.87 496.11C378.649 504.531 384.012 511.862 391.195 517.061C398.378 522.261 407.017 525.064 415.885 525.074C416.449 525.074 417.013 525.066 417.57 525.036C418.104 525.021 418.631 524.991 419.157 524.953C429.794 524.121 439.717 519.278 446.917 511.404C446.759 510.848 446.579 510.298 446.398 509.742C439.444 517.674 429.673 522.586 419.157 523.434V523.434Z" fill="white"/>
<path d="M98.7538 200.532C153.294 200.532 197.508 156.318 197.508 101.778C197.508 47.2379 153.294 3.02435 98.7538 3.02435C44.2136 3.02435 0 47.2379 0 101.778C0 156.318 44.2136 200.532 98.7538 200.532Z" fill="#E4E4E4"/>
<path d="M98.7538 184.073C144.204 184.073 181.049 147.228 181.049 101.778C181.049 56.328 144.204 19.4833 98.7538 19.4833C53.3036 19.4833 16.459 56.328 16.459 101.778C16.459 147.228 53.3036 184.073 98.7538 184.073Z" fill="#FF5722"/>
<path d="M361 200.532C415.54 200.532 459.754 156.318 459.754 101.778C459.754 47.238 415.54 3.02438 361 3.02438C306.46 3.02438 262.246 47.238 262.246 101.778C262.246 156.318 306.46 200.532 361 200.532Z" fill="#E4E4E4"/>
<path d="M361 184.073C406.45 184.073 443.295 147.228 443.295 101.778C443.295 56.328 406.45 19.4833 361 19.4833C315.55 19.4833 278.705 56.328 278.705 101.778C278.705 147.228 315.55 184.073 361 184.073Z" fill="white"/>
<path d="M623.246 200.532C677.786 200.532 722 156.318 722 101.778C722 47.238 677.786 3.02438 623.246 3.02438C568.706 3.02438 524.492 47.238 524.492 101.778C524.492 156.318 568.706 200.532 623.246 200.532Z" fill="#E4E4E4"/>
<path d="M623.246 184.073C668.696 184.073 705.541 147.228 705.541 101.778C705.541 56.328 668.696 19.4833 623.246 19.4833C577.796 19.4833 540.951 56.328 540.951 101.778C540.951 147.228 577.796 184.073 623.246 184.073Z" fill="white"/>
<path d="M91.7609 131.538C91.6138 131.538 91.4665 131.534 91.319 131.527C90.0174 131.464 88.7449 131.121 87.5886 130.52C86.4323 129.919 85.4197 129.076 84.6201 128.047L71.9965 111.816C70.5266 109.922 69.8681 107.522 70.1654 105.143C70.4627 102.764 71.6915 100.6 73.5824 99.1254L74.0365 98.7719C75.9309 97.302 78.331 96.6436 80.7103 96.9409C83.0895 97.2382 85.2538 98.467 86.7283 100.358C87.4397 101.273 88.3405 102.023 89.3688 102.557C90.3971 103.092 91.5288 103.398 92.6864 103.454C93.8439 103.51 95 103.316 96.0754 102.884C97.1509 102.452 98.1203 101.793 98.9174 100.952L124.55 73.8944C125.367 73.0322 126.345 72.3393 127.43 71.8553C128.515 71.3713 129.684 71.1057 130.871 71.0736C132.058 71.0416 133.24 71.2437 134.35 71.6684C135.459 72.0932 136.473 72.7323 137.335 73.5492L137.754 73.9457C139.495 75.5953 140.51 77.869 140.574 80.2665C140.639 82.6641 139.749 84.9892 138.099 86.7303L98.3242 128.714C97.4798 129.606 96.4622 130.317 95.3336 130.802C94.2051 131.288 92.9894 131.538 91.7609 131.538V131.538Z" fill="white"/>
<path d="M317.657 81.7821H252.657V25.2526C252.724 21.7523 254.176 18.4215 256.695 15.9901C259.214 13.5588 262.594 12.2253 266.094 12.2821H287.701C304.219 12.2821 317.657 25.254 317.657 41.1985V81.7821Z" fill="#2F2E41"/>
<path d="M341.722 554.819L329.383 554.818L323.512 507.223L341.724 507.224L341.722 554.819Z" fill="#FFB6B6"/>
<path d="M344.869 566.78L305.081 566.779V566.275C305.081 562.168 306.713 558.229 309.617 555.325C312.522 552.421 316.461 550.789 320.568 550.789H320.569L344.87 550.79L344.869 566.78Z" fill="#2F2E41"/>
<path d="M227.987 554.819L215.647 554.818L209.777 507.223L227.989 507.224L227.987 554.819Z" fill="#FFB6B6"/>
<path d="M231.134 566.78L191.346 566.779V566.275C191.346 562.168 192.978 558.229 195.882 555.325C198.786 552.421 202.725 550.789 206.833 550.789H206.834L231.135 550.79L231.134 566.78Z" fill="#2F2E41"/>
<path d="M242.886 172.448L234.834 223.78L311.328 224.786L301.263 175.468L242.886 172.448Z" fill="#FFB6B6"/>
<path d="M237.054 211.246L212.691 276.118L209.671 544.958H230.305L279.623 328.96L324.916 539.32H345.046L330.955 302.791C330.955 302.791 335.11 255.317 313.844 227.303L308.668 212.348L237.054 211.246Z" fill="#FF5722"/>
<path d="M341.558 261.817C339.428 261.237 337.451 260.197 335.767 258.77C334.083 257.342 332.732 255.564 331.809 253.558C330.887 251.552 330.416 249.369 330.428 247.161C330.441 244.954 330.938 242.776 331.883 240.781L299.341 134.687L323.277 129.942L353.04 233.937C356.286 235.747 358.755 238.686 359.979 242.195C361.203 245.704 361.098 249.54 359.682 252.977C358.267 256.414 355.64 259.212 352.3 260.841C348.959 262.47 345.137 262.818 341.558 261.817H341.558Z" fill="#FFB6B6"/>
<path d="M298.492 200.797L245.763 199.779C244.256 199.747 242.801 199.222 241.62 198.284C240.44 197.346 239.6 196.047 239.229 194.586C236.402 183.394 230.183 154.226 233.481 125.176C234.132 119.548 235.906 114.108 238.696 109.177C241.486 104.247 245.237 99.9261 249.727 96.4708C254.217 93.0154 259.354 90.4956 264.834 89.0605C270.315 87.6253 276.027 87.304 281.634 88.1154C287.549 88.9622 293.218 91.05 298.269 94.2417C303.32 97.4335 307.639 101.657 310.943 106.636C314.247 111.614 316.461 117.235 317.439 123.129C318.418 129.023 318.14 135.058 316.622 140.837C309.985 166.043 306.235 184.076 305.479 194.435C305.367 195.933 304.768 197.353 303.773 198.478C302.778 199.604 301.442 200.372 299.969 200.667V200.667C299.531 200.754 299.085 200.798 298.639 200.798C298.59 200.798 298.541 200.798 298.492 200.797Z" fill="#E4E4E4"/>
<path d="M138.322 107.605C138.639 108.315 138.899 109.05 139.1 109.801L205.103 132.229L217.856 121.087L237.187 138.137L216.526 160.055C214.857 161.826 212.658 163.008 210.26 163.422C207.863 163.837 205.395 163.463 203.228 162.356L132.601 126.28C130.047 127.847 127.077 128.599 124.085 128.436C121.093 128.273 118.222 127.204 115.853 125.369C113.484 123.535 111.729 121.022 110.823 118.166C109.916 115.311 109.901 112.246 110.779 109.381C111.656 106.517 113.385 103.987 115.736 102.129C118.086 100.27 120.947 99.1717 123.937 98.9788C126.927 98.7859 129.905 99.508 132.474 101.049C135.044 102.59 137.084 104.876 138.322 107.605V107.605Z" fill="#FFB6B6"/>
<path d="M205.24 128.652C205.245 127.743 205.446 126.846 205.829 126.022C206.213 125.198 206.77 124.466 207.462 123.877L231.629 103.291C234.687 99.7864 239.011 97.6377 243.651 97.3163C248.291 96.9949 252.87 98.527 256.382 101.577C259.894 104.626 262.053 108.944 262.386 113.584C262.719 118.223 261.198 122.805 258.157 126.325L240.947 153.124C240.456 153.889 239.806 154.539 239.041 155.03C238.276 155.521 237.414 155.841 236.514 155.969C235.614 156.096 234.697 156.029 233.826 155.77C232.955 155.511 232.149 155.068 231.464 154.47L207.404 133.455C206.719 132.857 206.171 132.119 205.797 131.29C205.424 130.461 205.234 129.561 205.24 128.652V128.652Z" fill="#E4E4E4"/>
<path d="M297.883 161.561C297.079 161.138 296.375 160.546 295.82 159.826C295.265 159.106 294.872 158.275 294.667 157.39L287.522 126.458C285.82 122.129 285.904 117.303 287.756 113.036C289.607 108.77 293.075 105.412 297.399 103.699C301.723 101.985 306.55 102.057 310.821 103.897C315.092 105.737 318.46 109.196 320.184 113.515L336.049 141.133C336.501 141.921 336.779 142.797 336.862 143.702C336.946 144.608 336.833 145.52 336.532 146.378C336.231 147.235 335.749 148.018 335.118 148.673C334.487 149.327 333.723 149.838 332.877 150.17L303.143 161.851C302.297 162.184 301.389 162.331 300.481 162.28C299.573 162.23 298.687 161.985 297.883 161.561Z" fill="#E4E4E4"/>
<path d="M323.463 17.8059C325.904 12.0904 321.706 4.81817 314.085 1.56287C306.464 -1.69242 298.307 0.301963 295.866 6.01749C293.424 11.733 297.623 19.0053 305.244 22.2606C312.864 25.5159 321.021 23.5215 323.463 17.8059Z" fill="#2F2E41"/>
<path d="M299.822 60.2902C307.975 45.3767 302.494 26.678 287.58 18.5255C272.667 10.373 253.968 15.854 245.816 30.7675C237.663 45.681 243.144 64.3797 258.058 72.5322C272.971 80.6847 291.67 75.2037 299.822 60.2902Z" fill="#FFB6B6"/>
<path d="M289.701 10.2821H254.5C251.919 10.2487 249.421 11.1922 247.507 12.9234C245.593 14.6545 244.404 17.0454 244.179 19.6164C244.088 20.9827 244.279 22.3531 244.739 23.6427C245.199 24.9324 245.919 26.1138 246.855 27.1137C247.79 28.1136 248.921 28.9108 250.177 29.4558C251.433 30.0008 252.788 30.2821 254.158 30.2821V30.2821C256.81 30.2821 259.353 31.3357 261.229 33.211C263.104 35.0864 264.158 37.6299 264.158 40.2821V81.2821H319.158V39.7388C319.158 35.8705 318.396 32.04 316.915 28.4662C315.435 24.8923 313.265 21.6451 310.53 18.9098C307.795 16.1745 304.547 14.0047 300.973 12.5244C297.4 11.044 293.569 10.2821 289.701 10.2821V10.2821Z" fill="#2F2E41"/>
</g>
<defs>
<clipPath id="clip0">
<rect width="722" height="568.282" fill="white"/>
</clipPath>
</defs>
</svg>
